<svg width="10" height="10" viewBox="0 0 10 10" fill="none" xmlns="http://www.w3.org/2000/svg">
<g clip-path="url(#clip0_2587_5241)">
<path d="M5.00004 6.66668C5.92052 6.66668 6.66671 5.92048 6.66671 5.00001C6.66671 4.07954 5.92052 3.33334 5.00004 3.33334C4.07957 3.33334 3.33337 4.07954 3.33337 5.00001C3.33337 5.92048 4.07957 6.66668 5.00004 6.66668Z" stroke="white" stroke-linecap="round" stroke-linejoin="round"/>
<path d="M6.66671 3.33335V5.41668C6.66671 5.7482 6.79841 6.06614 7.03283 6.30056C7.26725 6.53498 7.58519 6.66668 7.91671 6.66668C8.24823 6.66668 8.56618 6.53498 8.8006 6.30056C9.03502 6.06614 9.16671 5.7482 9.16671 5.41668V5.00001C9.16671 4.06139 8.84979 3.15026 8.2673 2.41425C7.6848 1.67824 6.87086 1.16046 5.95735 0.94481C5.04384 0.729158 4.08427 0.828266 3.23411 1.22608C2.38396 1.62389 1.69303 2.29709 1.27327 3.13662C0.853501 3.97615 0.729494 4.93282 0.921338 5.85163C1.11318 6.77044 1.60964 7.59756 2.33026 8.19898C3.05089 8.8004 3.95348 9.14089 4.89179 9.16527C5.83009 9.18966 6.74915 8.89652 7.50005 8.33335" stroke="white" stroke-linecap="round" stroke-linejoin="round"/>
</g>
<defs>
<clipPath id="clip0_2587_5241">
<rect width="10" height="10" fill="white"/>
</clipPath>
</defs>
</svg>
