<svg width="21" height="20" viewBox="0 0 21 20" fill="none" xmlns="http://www.w3.org/2000/svg">
<path d="M17.6834 10.8916C17.3667 10.8916 17.1 10.65 17.0584 10.3333C16.8584 8.44996 15.8417 6.74163 14.275 5.6583C13.9917 5.4583 13.925 5.07496 14.1167 4.79163C14.3167 4.5083 14.7084 4.44163 14.9834 4.6333C16.85 5.92496 18.05 7.9583 18.2917 10.2C18.325 10.5416 18.0834 10.85 17.7334 10.8916C17.725 10.8916 17.7 10.8916 17.6834 10.8916Z" fill="white"/>
<path d="M3.40838 10.9332C3.38338 10.9332 3.36671 10.9332 3.34171 10.9332C3.00004 10.8916 2.75004 10.5832 2.78338 10.2416C3.00838 7.99989 4.20004 5.97489 6.04171 4.66656C6.32504 4.46656 6.71671 4.53322 6.91671 4.81656C7.11671 5.09989 7.05004 5.49156 6.76671 5.69156C5.21671 6.78322 4.21671 8.49156 4.02504 10.3749C4.00004 10.6916 3.72504 10.9332 3.40838 10.9332Z" fill="white"/>
<path d="M10.5501 18.8415C9.31672 18.8415 8.14172 18.5581 7.04172 18.0081C6.73339 17.8498 6.60839 17.4748 6.76672 17.1665C6.92505 16.8581 7.30005 16.7331 7.60839 16.8915C9.40839 17.7998 11.5751 17.8165 13.3917 16.9415C13.7001 16.7915 14.0751 16.9248 14.2251 17.2331C14.3751 17.5415 14.2417 17.9165 13.9334 18.0665C12.8667 18.5831 11.7334 18.8415 10.5501 18.8415Z" fill="white"/>
<path d="M10.5499 7.03324C8.92494 7.03324 7.60828 5.71657 7.60828 4.09157C7.60828 2.46657 8.92494 1.1499 10.5499 1.1499C12.1749 1.1499 13.4916 2.46657 13.4916 4.09157C13.4916 5.71657 12.1666 7.03324 10.5499 7.03324ZM10.5499 2.40824C9.61661 2.40824 8.85828 3.16657 8.85828 4.0999C8.85828 5.03324 9.61661 5.79157 10.5499 5.79157C11.4833 5.79157 12.2416 5.03324 12.2416 4.0999C12.2416 3.16657 11.4749 2.40824 10.5499 2.40824Z" fill="white"/>
<path d="M4.52504 17.2251C2.90004 17.2251 1.58337 15.9085 1.58337 14.2835C1.58337 12.6668 2.90004 11.3418 4.52504 11.3418C6.15004 11.3418 7.46671 12.6585 7.46671 14.2835C7.46671 15.9001 6.15004 17.2251 4.52504 17.2251ZM4.52504 12.5918C3.59171 12.5918 2.83337 13.3501 2.83337 14.2835C2.83337 15.2168 3.59171 15.9751 4.52504 15.9751C5.45837 15.9751 6.21671 15.2168 6.21671 14.2835C6.21671 13.3501 5.45837 12.5918 4.52504 12.5918Z" fill="white"/>
<path d="M16.475 17.2251C14.85 17.2251 13.5333 15.9085 13.5333 14.2835C13.5333 12.6668 14.85 11.3418 16.475 11.3418C18.1 11.3418 19.4167 12.6585 19.4167 14.2835C19.4083 15.9001 18.0917 17.2251 16.475 17.2251ZM16.475 12.5918C15.5417 12.5918 14.7833 13.3501 14.7833 14.2835C14.7833 15.2168 15.5417 15.9751 16.475 15.9751C17.4083 15.9751 18.1667 15.2168 18.1667 14.2835C18.1583 13.3501 17.4083 12.5918 16.475 12.5918Z" fill="white"/>
</svg>
