<svg width="10" height="10" viewBox="0 0 10 10" fill="none" xmlns="http://www.w3.org/2000/svg">
<path d="M6.30416 7.94167H2.97083C2.79999 7.94167 2.65833 7.8 2.65833 7.62917C2.65833 7.45833 2.79999 7.31667 2.97083 7.31667H6.30416C7.27916 7.31667 8.07499 6.52083 8.07499 5.54584C8.07499 4.57084 7.27916 3.775 6.30416 3.775H1.72083C1.54999 3.775 1.40833 3.63334 1.40833 3.4625C1.40833 3.29167 1.54999 3.15 1.72083 3.15H6.30416C7.62499 3.15 8.69999 4.225 8.69999 5.54584C8.69999 6.86667 7.62499 7.94167 6.30416 7.94167Z" fill="white"/>
<path d="M2.67915 4.81666C2.59998 4.81666 2.52082 4.7875 2.45832 4.725L1.39165 3.65833C1.27082 3.5375 1.27082 3.3375 1.39165 3.21666L2.45832 2.15C2.57915 2.02916 2.77915 2.02916 2.89998 2.15C3.02082 2.27083 3.02082 2.47083 2.89998 2.59166L2.05415 3.4375L2.89998 4.28333C3.02082 4.40416 3.02082 4.60416 2.89998 4.725C2.84165 4.7875 2.75832 4.81666 2.67915 4.81666Z" fill="white"/>
</svg>
